# xmcd
#
# Track frame offsets: 
#        150
#        16057
#        31677
#        47287
#
# Disc length: 1133 seconds
#
# Revision: 0
# Processed by: cddbd v1.5.2PL0 Copyright (c) Steve Scherf et al.
# Submitted via: ExactAudioCopy v1.3
#
DISCID=1a046b04
DTITLE=Amanecer - El Cielo
DYEAR=2001
DGENRE=Pop
TTITLE0=El Cielo Original
TTITLE1=Radio Edit " Pop Mix
TTITLE2=Radio Mix
TTITLE3=Extended Club Mix
EXTD=
EXTT0=
EXTT1=
EXTT2=
EXTT3=
PLAYORDER=
